<svg xmlns="http://www.w3.org/2000/svg" version="1.1" xmlns:xlink="http://www.w3.org/1999/xlink" xmlns:svgjs="http://svgjs.dev/svgjs" width="171" height="69"><svg width="171" height="69" viewBox="0 0 171 69" fill="none" xmlns="http://www.w3.org/2000/svg">
<path d="M11.5084 46.138L14.1876 54.0591L22.5489 53.9589L15.8433 58.9547L18.5224 66.8758L11.6991 62.0422L4.99346 67.038L7.48196 59.0549L0.65857 54.2213L9.01994 54.1211L11.5084 46.138Z" fill="#020202"></path>
<path d="M159.508 46.138L162.188 54.0591L170.549 53.9589L163.843 58.9547L166.522 66.8758L159.699 62.0422L152.993 67.038L155.482 59.0549L148.659 54.2213L157.02 54.1211L159.508 46.138Z" fill="#020202"></path>
<path d="M126.736 15.4931L133.875 19.8471L140.222 14.4031L138.287 22.5381L145.426 26.8922L137.091 27.5658L135.156 35.7009L131.94 27.9822L123.605 28.6558L129.952 23.2118L126.736 15.4931Z" fill="#020202"></path>
<path d="M42.7221 16.4931L35.5831 20.8471L29.2361 15.4031L31.171 23.5381L24.0321 27.8922L32.3668 28.5658L34.3017 36.7009L37.518 28.9822L45.8528 29.6558L39.5058 24.2118L42.7221 16.4931Z" fill="#020202"></path>
<path d="M84.5075 0.199471L87.229 8.1062L95.5897 7.96129L88.9109 12.9928L91.6323 20.8996L84.7832 16.1025L78.1044 21.134L80.5502 13.1377L73.701 8.34068L82.0618 8.19576L84.5075 0.199471Z" fill="#020202"></path>
<path d="M150 69C150 62.9592 148.332 56.9775 145.09 51.3966C141.849 45.8156 137.098 40.7446 131.108 36.4731C125.119 32.2016 118.009 28.8133 110.183 26.5015C102.358 24.1898 93.9703 23 85.5 23C77.0297 23 68.6424 24.1898 60.8169 26.5015C52.9914 28.8133 45.881 32.2016 39.8916 36.4731C33.9022 40.7446 29.1512 45.8156 25.9098 51.3966C22.6683 56.9775 21 62.9592 21 69L85.5 69H150Z" fill="black"></path>
<path fill-rule="evenodd" clip-rule="evenodd" d="M48 43.402C52.0944 51.0222 54.4312 59.7273 54.4678 68.975H61.9999L48.7905 43L48 43.402Z" fill="white"></path>
<circle cx="48" cy="43" r="3" fill="white"></circle>
<circle cx="86" cy="31" r="3" fill="white"></circle>
<path fill-rule="evenodd" clip-rule="evenodd" d="M124 43.4019C119.906 51.0221 117.569 59.7272 117.532 68.9749H110L123.21 42.9999L124 43.4019Z" fill="white"></path>
<circle cx="124" cy="43" r="3" fill="white"></circle>
<path d="M86 69V57" stroke="white" stroke-width="2"></path>
<ellipse cx="86" cy="55" rx="3" ry="4" fill="white"></ellipse>
<path fill-rule="evenodd" clip-rule="evenodd" d="M86.7975 28.6041C79.4813 37.3969 68.8262 43.0674 56.8311 43.3944C53.9334 43.4734 51.0967 43.2367 48.3511 42.7141L76 57L86.7975 28.6041Z" fill="white"></path>
<path fill-rule="evenodd" clip-rule="evenodd" d="M85.7652 28.9999C93.0814 37.7928 103.737 43.4633 115.732 43.7902C118.629 43.8692 121.466 43.6325 124.212 43.11L96.5628 57.3958L85.7652 28.9999Z" fill="white"></path>
</svg><style>@media (prefers-color-scheme: light) { :root { filter: none; } }
@media (prefers-color-scheme: dark) { :root { filter: none; } }
</style></svg>