<svg width="20" height="20" viewBox="0 0 20 20" fill="none" xmlns="http://www.w3.org/2000/svg">
<path opacity="0.2" fill-rule="evenodd" clip-rule="evenodd" d="M15.905 0.834C13.672 1.992 12.5 3.64 12.5 5.717C12.5 7.674 13.547 9.032 15.5 9.696V11.2C15.2719 11.3316 15.0826 11.521 14.9509 11.749C14.8193 11.977 14.75 12.2357 14.75 12.499V17.499C14.75 17.8968 14.908 18.2784 15.1893 18.5597C15.4706 18.841 15.8521 18.999 16.25 18.999C16.6478 18.999 17.0293 18.841 17.3106 18.5597C17.5919 18.2784 17.75 17.8968 17.75 17.499V12.499C17.7501 12.2355 17.6809 11.9767 17.5492 11.7485C17.4176 11.5202 17.2281 11.3307 17 11.199V1.5C17 1.37124 16.9668 1.24465 16.9037 1.13241C16.8406 1.02017 16.7497 0.926064 16.6397 0.859155C16.5297 0.792245 16.4043 0.754784 16.2756 0.750378C16.1469 0.745973 16.0193 0.774771 15.905 0.834ZM5.78295 2.463C5.79566 2.26647 5.88515 2.08283 6.03211 1.95173C6.17907 1.82062 6.3717 1.75258 6.56839 1.7623C6.76509 1.77202 6.95007 1.85871 7.0834 2.00366C7.21672 2.14861 7.28768 2.34018 7.28095 2.537C7.19895 4.175 7.28395 5.284 7.49995 5.804C7.53821 5.91207 7.6048 6.00788 7.69276 6.08141C7.78072 6.15494 7.88681 6.2035 7.99995 6.222V2.5C7.99995 2.30109 8.07897 2.11032 8.21962 1.96967C8.36027 1.82902 8.55104 1.75 8.74995 1.75C8.94886 1.75 9.13963 1.82902 9.28028 1.96967C9.42093 2.11032 9.49995 2.30109 9.49995 2.5V6.222C9.61309 6.2035 9.71918 6.15494 9.80714 6.08141C9.8951 6.00788 9.96169 5.91207 9.99995 5.804C10.216 5.284 10.3 4.174 10.219 2.537C10.2122 2.34018 10.2832 2.14861 10.4165 2.00366C10.5498 1.85871 10.7348 1.77202 10.9315 1.7623C11.1282 1.75258 11.3208 1.82062 11.4678 1.95173C11.6147 2.08283 11.7042 2.26647 11.717 2.463C11.809 4.309 11.711 5.594 11.386 6.378C11.05 7.188 10.386 7.645 9.49995 7.734V11.2C9.72797 11.3316 9.91733 11.521 10.049 11.749C10.1806 11.977 10.2499 12.2357 10.25 12.499V17.499C10.25 17.8968 10.0919 18.2784 9.81061 18.5597C9.52931 18.841 9.14778 18.999 8.74995 18.999C8.35213 18.999 7.9706 18.841 7.68929 18.5597C7.40799 18.2784 7.24995 17.8968 7.24995 17.499V12.499C7.24996 12.2357 7.31927 11.977 7.45092 11.749C7.58257 11.521 7.77193 11.3316 7.99995 11.2V7.735C7.11395 7.646 6.44995 7.189 6.11395 6.379C5.78895 5.595 5.68995 4.309 5.78295 2.463Z" fill="#575757" fill-opacity="0.705882"/>
<path fill-rule="evenodd" clip-rule="evenodd" d="M14.28 1.051C12.12 2.115 11 3.611 11 5.506C11 7.326 12.037 8.557 14 9.137V11C14 11.1326 14.0527 11.2598 14.1464 11.3536C14.2402 11.4473 14.3674 11.5 14.5 11.5C14.6326 11.5 14.7598 11.4473 14.8536 11.3536C14.9473 11.2598 15 11.1326 15 11V1.5C15 1.41511 14.9784 1.33162 14.9372 1.2574C14.896 1.18317 14.8366 1.12065 14.7646 1.07574C14.6925 1.03082 14.6103 1.00498 14.5255 1.00065C14.4407 0.996322 14.3562 1.01365 14.28 1.051ZM12 5.506C12 4.238 12.65 3.192 14 2.348V8.088C12.636 7.611 12 6.767 12 5.506Z" fill="#575757" fill-opacity="0.705882"/>
<path fill-rule="evenodd" clip-rule="evenodd" d="M13 12.5V17.5C13 17.8978 13.158 18.2794 13.4393 18.5607C13.7206 18.842 14.1022 19 14.5 19C14.8978 19 15.2794 18.842 15.5607 18.5607C15.842 18.2794 16 17.8978 16 17.5V12.5C16 12.1022 15.842 11.7206 15.5607 11.4393C15.2794 11.158 14.8978 11 14.5 11C14.1022 11 13.7206 11.158 13.4393 11.4393C13.158 11.7206 13 12.1022 13 12.5ZM14.5 18C14.3674 18 14.2402 17.9473 14.1464 17.8536C14.0527 17.7598 14 17.6326 14 17.5V12.5C14 12.3674 14.0527 12.2402 14.1464 12.1464C14.2402 12.0527 14.3674 12 14.5 12C14.6326 12 14.7598 12.0527 14.8536 12.1464C14.9473 12.2402 15 12.3674 15 12.5V17.5C15 17.6326 14.9473 17.7598 14.8536 17.8536C14.7598 17.9473 14.6326 18 14.5 18Z" fill="#575757" fill-opacity="0.705882"/>
<path d="M4.53195 2.475C4.53523 2.40934 4.55142 2.34497 4.57958 2.28556C4.60774 2.22615 4.64732 2.17288 4.69607 2.12877C4.74482 2.08466 4.80179 2.05059 4.8637 2.02849C4.92562 2.0064 4.99129 1.99672 5.05695 2C5.12261 2.00328 5.18698 2.01947 5.24639 2.04763C5.30579 2.07579 5.35907 2.11537 5.40318 2.16412C5.44729 2.21287 5.48136 2.26984 5.50346 2.33176C5.52555 2.39367 5.53523 2.45934 5.53195 2.525C5.44795 4.197 5.53495 5.335 5.76895 5.899C5.95195 6.341 6.31295 6.533 6.97095 6.496C7.10131 6.49171 7.22819 6.53853 7.32451 6.62647C7.42084 6.71441 7.47899 6.83651 7.48656 6.96672C7.49413 7.09693 7.45051 7.22495 7.36502 7.32345C7.27953 7.42196 7.15893 7.48316 7.02895 7.494C5.97095 7.554 5.20295 7.145 4.84495 6.283C4.53795 5.543 4.44195 4.287 4.53195 2.475Z" fill="#575757" fill-opacity="0.705882"/>
<path d="M9.4669 2.475C9.46614 2.40772 9.4518 2.34128 9.42475 2.27967C9.39769 2.21806 9.35848 2.16254 9.30946 2.11644C9.26045 2.07034 9.20263 2.03462 9.13947 2.0114C9.07631 1.98818 9.00912 1.97794 8.94192 1.98131C8.87471 1.98468 8.80888 2.00158 8.74836 2.03099C8.68784 2.06041 8.63388 2.10174 8.58972 2.1525C8.54555 2.20327 8.51208 2.26242 8.49132 2.32643C8.47057 2.39044 8.46294 2.45798 8.4689 2.525C8.5519 4.197 8.4649 5.335 8.2309 5.899C8.0479 6.341 7.6869 6.533 7.0289 6.496C6.89854 6.49171 6.77166 6.53853 6.67534 6.62647C6.57901 6.71441 6.52086 6.83651 6.51329 6.96672C6.50573 7.09693 6.54934 7.22495 6.63483 7.32345C6.72032 7.42196 6.84092 7.48316 6.9709 7.494C8.0289 7.554 8.7969 7.145 9.1549 6.283C9.4619 5.543 9.5579 4.287 9.4669 2.475Z" fill="#575757" fill-opacity="0.705882"/>
<path d="M6.5 2.5C6.5 2.36739 6.55268 2.24021 6.64645 2.14645C6.74021 2.05268 6.86739 2 7 2C7.13261 2 7.25979 2.05268 7.35355 2.14645C7.44732 2.24021 7.5 2.36739 7.5 2.5V11.5C7.5 11.6326 7.44732 11.7598 7.35355 11.8536C7.25979 11.9473 7.13261 12 7 12C6.86739 12 6.74021 11.9473 6.64645 11.8536C6.55268 11.7598 6.5 11.6326 6.5 11.5V2.5Z" fill="#575757" fill-opacity="0.705882"/>
<path fill-rule="evenodd" clip-rule="evenodd" d="M5.5 12.5V17.5C5.5 17.8978 5.65804 18.2794 5.93934 18.5607C6.22064 18.842 6.60218 19 7 19C7.39782 19 7.77936 18.842 8.06066 18.5607C8.34196 18.2794 8.5 17.8978 8.5 17.5V12.5C8.5 12.1022 8.34196 11.7206 8.06066 11.4393C7.77936 11.158 7.39782 11 7 11C6.60218 11 6.22064 11.158 5.93934 11.4393C5.65804 11.7206 5.5 12.1022 5.5 12.5ZM7 18C6.86739 18 6.74021 17.9473 6.64645 17.8536C6.55268 17.7598 6.5 17.6326 6.5 17.5V12.5C6.5 12.3674 6.55268 12.2402 6.64645 12.1464C6.74021 12.0527 6.86739 12 7 12C7.13261 12 7.25979 12.0527 7.35355 12.1464C7.44732 12.2402 7.5 12.3674 7.5 12.5V17.5C7.5 17.6326 7.44732 17.7598 7.35355 17.8536C7.25979 17.9473 7.13261 18 7 18Z" fill="#575757" fill-opacity="0.705882"/>
</svg>
