<svg width="334" height="50" viewBox="0 0 334 50" fill="none" xmlns="http://www.w3.org/2000/svg">
<circle cx="25" cy="25" r="25" fill="#020202"/>
<path d="M46 25H96" stroke="#020202" stroke-width="8"/>
<path d="M96 25H146" stroke="#D9D9D9" stroke-width="8"/>
<path d="M188 25H238" stroke="#D9D9D9" stroke-width="8"/>
<path d="M238 25H288" stroke="#D9D9D9" stroke-width="8"/>
<circle cx="166" cy="25" r="25" fill="#D9D9D9"/>
<circle cx="309" cy="25" r="25" fill="#D9D9D9"/>
<path d="M23.9434 30.291C23.9434 30.291 23.9434 26.5866 23.9434 19.1777C23.9434 18.8783 23.8913 18.6764 23.7871 18.5723C23.6829 18.4681 23.5299 18.4128 23.3281 18.4062C23.1328 18.3932 23.0352 18.3346 23.0352 18.2305C23.0352 18.0742 23.0775 17.9505 23.1621 17.8594L25.0273 16.0332C25.0469 16.0137 25.0794 16.0039 25.125 16.0039H25.75C25.8086 16.0039 25.8379 16.0625 25.8379 16.1797V30.291C25.8379 30.9811 25.9941 31.3848 26.3066 31.502C26.4954 31.5736 26.5898 31.6484 26.5898 31.7266C26.5898 31.9089 26.5475 32 26.4629 32H23.3086C23.224 32 23.1816 31.9414 23.1816 31.8242C23.1816 31.707 23.2077 31.6322 23.2598 31.5996C23.3118 31.5671 23.3802 31.5345 23.4648 31.502C23.6602 31.4238 23.7904 31.2871 23.8555 31.0918C23.9206 30.89 23.9499 30.623 23.9434 30.291Z" fill="white"/>
<path d="M163.967 32C163.902 32 163.879 31.86 163.898 31.5801C163.918 31.3001 163.941 31.1439 163.967 31.1113C164.839 30.1022 165.542 29.2559 166.076 28.5723C166.623 27.8887 167.163 27.1302 167.697 26.2969C168.687 24.7604 169.51 22.9115 170.168 20.75C170.441 19.7083 170.305 18.7578 169.758 17.8984C169.4 17.3255 168.938 17.0423 168.371 17.0488C167.811 17.0488 167.352 17.2799 166.994 17.7422C166.636 18.1979 166.415 18.7285 166.33 19.334C166.298 19.5814 166.32 19.7897 166.398 19.959C166.483 20.1217 166.59 20.2878 166.721 20.457L166.945 20.75C166.971 20.7891 166.955 20.8737 166.896 21.0039C166.844 21.1276 166.779 21.1797 166.701 21.1602L164.416 19.998C164.416 19.5293 164.52 19.0443 164.729 18.543C164.943 18.0417 165.227 17.5892 165.578 17.1855C165.93 16.7819 166.353 16.4499 166.848 16.1895C167.342 15.929 167.85 15.7988 168.371 15.7988C169.478 15.7988 170.37 16.209 171.047 17.0293C171.724 17.8431 172.062 18.8652 172.062 20.0957C172.062 21.7038 171.252 23.6927 169.631 26.0625C169.188 26.7135 168.745 27.2995 168.303 27.8203L167.111 29.2168C166.747 29.627 166.451 29.946 166.223 30.1738L165.881 30.5156C166.018 30.5156 166.376 30.5254 166.955 30.5449C167.769 30.571 168.628 30.5449 169.533 30.4668C170.438 30.3887 171.073 30.138 171.438 29.7148C171.451 29.6953 171.594 29.5586 171.867 29.3047C171.9 29.3307 171.975 29.3568 172.092 29.3828C172.209 29.4023 172.268 29.4642 172.268 29.5684C172.268 29.6725 172.121 30.1055 171.828 30.8672C171.542 31.6224 171.356 32 171.271 32H163.967Z" fill="#020202"/>
<path d="M312.057 19.0605C312.05 20.4408 311.207 21.4661 309.527 22.1367V22.2051C310.53 22.4199 311.337 22.8789 311.949 23.582C312.561 24.2786 312.867 25.0469 312.867 25.8867C312.867 26.7266 312.717 27.4622 312.418 28.0938C311.858 29.2786 310.882 30.2259 309.488 30.9355C308.095 31.6452 306.578 32 304.938 32C304.833 32 304.758 31.8893 304.713 31.668C304.667 31.4466 304.658 31.2676 304.684 31.1309C304.716 30.9876 304.745 30.9062 304.771 30.8867C304.798 30.8607 304.83 30.8379 304.869 30.8184C304.908 30.7923 304.938 30.7695 304.957 30.75C305.126 30.763 305.348 30.7695 305.621 30.7695C305.895 30.7695 306.279 30.7142 306.773 30.6035C307.275 30.4863 307.776 30.304 308.277 30.0566C308.779 29.8027 309.228 29.4967 309.625 29.1387C310.022 28.7806 310.344 28.3314 310.592 27.791C310.846 27.2441 310.973 26.6517 310.973 26.0137C310.973 25.1283 310.673 24.3958 310.074 23.8164C309.475 23.237 308.746 22.9473 307.887 22.9473H307.721C307.564 22.9473 307.486 22.8919 307.486 22.7812L307.496 21.7852C307.496 21.6745 307.587 21.6191 307.77 21.6191H307.838C308.502 21.6191 309.055 21.3587 309.498 20.8379C309.947 20.3105 310.172 19.7376 310.172 19.1191C310.172 18.4941 310.012 17.9993 309.693 17.6348C309.374 17.2637 308.932 17.0781 308.365 17.0781C308.04 17.0781 307.753 17.2083 307.506 17.4688C307.258 17.7227 307.135 17.9505 307.135 18.1523C307.135 18.3477 307.187 18.5202 307.291 18.6699C307.395 18.8197 307.447 18.9141 307.447 18.9531C307.447 18.9922 307.398 19.0671 307.301 19.1777C307.203 19.2884 307.128 19.3438 307.076 19.3438C307.031 19.3438 306.972 19.3177 306.9 19.2656L306.422 18.9531C305.973 18.6667 305.667 18.4421 305.504 18.2793C305.341 18.1165 305.26 18.0189 305.26 17.9863C305.26 17.9538 305.263 17.9342 305.27 17.9277C305.53 17.3288 305.943 16.8307 306.51 16.4336C307.083 16.0299 307.818 15.8281 308.717 15.8281C309.622 15.8281 310.403 16.1276 311.061 16.7266C311.725 17.3255 312.057 18.1035 312.057 19.0605Z" fill="#020202"/>
</svg>
